<svg width="997.86122" height="450.8081" xmlns="http://www.w3.org/2000/svg">
 <g>
  <title>background</title>
  <rect x="-1" y="-1" width="999.86122" height="452.8081" id="canvas_background" fill="none"/>
 </g>

 <g>
  <title>Layer 1</title>
  <rect x="871.99152" y="181.55804" width="30.15944" height="104.39806" fill="#f2f2f2" id="svg_1"/>
  <polygon points="923.0679931640625,266.3169860839844 849.7150268554688,179.052001953125 702.4749755859375,180.3979949951172 613.156005859375,267.39599609375 614.9609985351562,268.5559997558594 614.3159790039062,268.5559997558594 614.3159790039062,449.51300048828125 922.8709716796875,449.51300048828125 922.8709716796875,268.5559997558594 923.0679931640625,266.3169860839844 " fill="#f2f2f2" id="svg_2"/>
  <polygon points="848.792 179.238 757.154 286.674 757.154 449.513 921.871 449.513 921.871 266.236 848.792 179.238" fill="#e6e6e6" id="svg_3"/>
  <rect x="823.27242" y="359.46083" width="33.6394" height="29.73333" fill="#3f3d56" id="svg_4"/>
  <rect x="823.27242" y="307.99568" width="33.6394" height="29.26181" fill="#3f3d56" id="svg_5"/>
  <rect x="823.27242" y="359.46083" width="33.6394" height="29.73333" fill="#fff" id="svg_6"/>
  <rect x="823.27242" y="307.99568" width="33.6394" height="29.26181" fill="#fff" id="svg_7"/>
  <rect x="673.77661" y="351.57128" width="33.6394" height="29.73333" fill="#fff" id="svg_8"/>
  <rect x="673.77661" y="300.10613" width="33.6394" height="29.26181" fill="#fff" id="svg_9"/>
  <rect x="633.99152" y="181.55804" width="30.15944" height="104.39806" fill="#f2f2f2" id="svg_10"/>
  <polygon points="684.068 266.317 610.715 179.052 463.475 180.398 374.156 267.396 375.961 268.556 375.316 268.556 375.316 449.513 683.871 449.513 683.871 268.556 684.068 266.317" fill="#f2f2f2" id="svg_11"/>
  <polygon points="610.792 179.238 519.154 286.674 519.154 449.513 683.871 449.513 683.871 266.236 610.792 179.238" fill="#e6e6e6" id="svg_12"/>
  <rect x="585.27242" y="359.46083" width="33.6394" height="29.73333" fill="#3f3d56" id="svg_13"/>
  <rect x="585.27242" y="307.99568" width="33.6394" height="29.26181" fill="#3f3d56" id="svg_14"/>
  <rect x="585.27242" y="359.46083" width="33.6394" height="29.73333" fill="#fff" id="svg_15"/>
  <rect x="585.27242" y="307.99568" width="33.6394" height="29.26181" fill="#fff" id="svg_16"/>
  <rect x="435.77661" y="351.57128" width="33.6394" height="29.73333" fill="#fff" id="svg_17"/>
  <rect x="435.77661" y="300.10613" width="33.6394" height="29.26181" fill="#fff" id="svg_18"/>
  <rect x="380.1536" y="91.46021" width="40.30032" height="139.50112" fill="#f2f2f2" id="svg_19"/>
  <polygon points="444.0679931640625,204.71800231933594 346.0509948730469,88.11199951171875 149.302001953125,89.91000366210938 29.951000213623047,206.16099548339844 32.36199951171875,207.71099853515625 31.500999450683594,207.71099853515625 31.500999450683594,449.51300048828125 443.8039855957031,449.51300048828125 443.8039855957031,207.71099853515625 444.0679931640625,204.71800231933594 " fill="#f2f2f2" id="svg_20"/>
  <polygon points="349.153 88.36 226.702 231.921 226.702 449.513 446.804 449.513 446.804 204.611 349.153 88.36" fill="#e6e6e6" id="svg_21"/>
  <rect x="315.05306" y="329.18147" width="44.95039" height="39.73094" fill="#3f3d56" id="svg_22"/>
  <rect x="315.05306" y="260.41156" width="44.95039" height="39.10088" fill="#3f3d56" id="svg_23"/>
  <rect x="315.05306" y="329.18147" width="44.95039" height="39.73094" fill="#fff" id="svg_24"/>
  <rect x="315.05306" y="260.41156" width="44.95039" height="39.10088" fill="#fff" id="svg_25"/>
  <rect x="115.29041" y="318.63912" width="44.95039" height="39.73094" fill="#fff" id="svg_26"/>
  <rect x="115.29041" y="249.8692" width="44.95039" height="39.10088" fill="#fff" id="svg_27"/>
  <rect x="-88.55587" y="539.70119" width="29.84136" height="2.29972" transform="rotate(-28.141599655151367 -73.63519287109372,540.8510131835938) " fill="#4f44ff" id="svg_31"/>
  <rect x="-249.1015" y="855.85655" width="2.29972" height="29.84239" transform="rotate(-61.842041015625 -247.95164489746082,870.7777709960939) " fill="#4f44ff" id="svg_32"/>
  <rect x="-121.78593" y="405.15306" width="58.36761" height="2.29972" transform="rotate(-28.141599655151367 -92.60211944580065,406.3029174804688) " fill="#3f3d56" id="svg_35"/>
  <rect x="-298.75313" y="630.99981" width="2.29972" height="58.36761" transform="rotate(-61.84257888793945 -297.60327148437506,660.18359375) " fill="#3f3d56" id="svg_36"/>
  <rect x="-48.88997" y="625.48397" width="2.29972" height="79.87126" transform="rotate(-61.84328842163086 -47.74010848999016,665.4195556640626) " fill="#3f3d56" id="svg_40"/>
  <rect x="858.91867" y="1480.95061" width="2.29972" height="29.84136" transform="rotate(-61.8583984375 860.0684814453128,1495.8712158203127) " fill="#4f44ff" id="svg_43"/>
  <rect x="714.24839" y="887.93984" width="29.84239" height="2.29972" transform="rotate(-28.157960891723633 729.1696166992188,889.0896606445315) " fill="#4f44ff" id="svg_44"/>
  <rect x="1031.49656" y="1370.53891" width="2.29972" height="58.36761" transform="rotate(-61.8583984375 1032.6464843750005,1399.7227783203127) " fill="#3f3d56" id="svg_47"/>
  <rect x="836.12125" y="827.67844" width="58.36761" height="2.29972" transform="rotate(-28.157419204711914 865.3049926757809,828.8282470703125) " fill="#3f3d56" id="svg_48"/>
  <rect x="875.78493" y="1120.64168" width="2.29972" height="79.87126" transform="rotate(-61.8583984375 876.9347534179692,1160.5773925781252) " fill="#3f3d56" id="svg_51"/>
  <rect x="718.70706" y="692.79316" width="79.87126" height="2.29972" transform="rotate(-28.156709671020508 758.6426391601567,693.9429931640626) " fill="#3f3d56" id="svg_52"/>
  <path d="m472.60437,157.46591l9.20569,-7.3628c-7.15149,-0.789 -10.0899,3.11127 -11.29248,6.19837c-5.587,-2.32 -11.66919,0.72046 -11.66919,0.72046l18.41889,6.6867a13.93792,13.93792 0 0 0 -4.66291,-6.24273z" fill="#3f3d56" id="svg_53"/>
  <path d="m147.60437,77.46591l9.20569,-7.3628c-7.15149,-0.789 -10.0899,3.11127 -11.29248,6.19837c-5.587,-2.32 -11.66919,0.72046 -11.66919,0.72046l18.41889,6.6867a13.93792,13.93792 0 0 0 -4.66291,-6.24273z" fill="#3f3d56" id="svg_54"/>
  <path d="m933.60437,119.46591l9.20569,-7.3628c-7.15149,-0.789 -10.0899,3.11127 -11.29248,6.19837c-5.587,-2.32 -11.66919,0.72046 -11.66919,0.72046l18.41889,6.6867a13.93792,13.93792 0 0 0 -4.66291,-6.24273z" fill="#3f3d56" id="svg_67"/>
  <path d="m715.60437,108.46591l9.20569,-7.3628c-7.15149,-0.789 -10.0899,3.11127 -11.29248,6.19837c-5.587,-2.32 -11.66919,0.72046 -11.66919,0.72046l18.41889,6.6867a13.93792,13.93792 0 0 0 -4.66291,-6.24273z" fill="#3f3d56" id="svg_55"/>
  <path d="m750.19095,437.05205a13.91772,13.91772 0 0 0 -6.96955,1.86975a14.98175,14.98175 0 0 0 -25.03045,11.13025l45.94952,0a13.99045,13.99045 0 0 0 -13.94952,-13z" fill="#3f3d56" id="svg_56"/>
  <path d="m283.19095,437.05205a13.91772,13.91772 0 0 0 -6.96955,1.86975a14.98175,14.98175 0 0 0 -25.03045,11.13025l45.94952,0a13.99045,13.99045 0 0 0 -13.94952,-13z" fill="#3f3d56" id="svg_57"/>
  <path d="m522.19095,437.05205a13.91772,13.91772 0 0 0 -6.96955,1.86975a14.98175,14.98175 0 0 0 -25.03045,11.13025l45.94952,0a13.99045,13.99045 0 0 0 -13.94952,-13z" fill="#3f3d56" id="svg_58"/>
  <polygon points="471.759 404.228 339.191 404.228 339.191 408.504 359.866 408.504 359.866 449.13 364.142 449.13 364.142 408.504 444.669 408.504 444.669 449.13 448.946 449.13 448.946 408.504 471.759 408.504 471.759 404.228" fill="#3f3d56" id="svg_59"/>
  <rect x="339.45191" y="391.43404" width="132.56808" height="4.27639" fill="#3f3d56" id="svg_60"/>
  <rect x="339.45191" y="380.74306" width="132.56808" height="4.27639" fill="#3f3d56" id="svg_61"/>
  <rect x="339.45191" y="370.05209" width="132.56808" height="4.27639" fill="#3f3d56" id="svg_62"/>
  <polygon points="678.759 404.228 546.191 404.228 546.191 408.504 566.866 408.504 566.866 449.13 571.142 449.13 571.142 408.504 651.669 408.504 651.669 449.13 655.946 449.13 655.946 408.504 678.759 408.504 678.759 404.228" fill="#3f3d56" id="svg_63"/>
  <rect x="546.45191" y="391.43404" width="132.56808" height="4.27639" fill="#3f3d56" id="svg_64"/>
  <rect x="546.45191" y="380.74306" width="132.56808" height="4.27639" fill="#3f3d56" id="svg_65"/>
  <rect x="546.45191" y="370.05209" width="132.56808" height="4.27639" fill="#3f3d56" id="svg_66"/>
 </g>
</svg>