<svg width="712.946" height="600.135" xmlns="http://www.w3.org/2000/svg">

 <g>
  <title>background</title>
  <rect fill="none" id="canvas_background" height="602.135" width="714.946" y="-1" x="-1"/>
 </g>
 <g>
  <title>Layer 1</title>
  <g id="Group_9">
   <path stroke-width="2" stroke-miterlimit="10" stroke="#e6e6e6" fill="none" d="m215.76034,533.10516s-32.21,-57.076 -80.75,-73.524c-20.37,-6.9 -29,-10.711 -41.16,-28.454" id="Path_2"/>
   <path fill="#e6e6e6" d="m106.95934,481.03516c7.282,-2.521 23.808,-23.016 23.808,-23.016s-25.677,-5.875 -32.96,-3.354a13.956,13.956 0 0 0 9.1,26.371l0.052,-0.001z" id="Path_5"/>
   <path fill="#e6e6e6" d="m155.62534,509.90916c7.6,-1.253 27.379,-18.654 27.379,-18.654s-24.319,-10.132 -31.923,-8.879a13.954,13.954 0 1 0 4.545,27.536l-0.001,-0.003z" id="Path_6"/>
   <path fill="#e6e6e6" d="m85.11457,411.48155c6.3063,4.4198 16.61725,28.67351 16.61725,28.67351s-26.3145,-1.38976 -32.62727,-5.80555a8.01074,8.01074 0 1 1 16.02091,-22.85911l-0.01089,-0.00886z" id="Path_7"/>
   <path stroke-width="2" stroke-miterlimit="10" stroke="#535461" fill="none" d="m213.51034,531.72916s-7.643,-79.127 -53.394,-121.217c-19.194,-17.669 -32.527,-40.769 -37.283,-66.448a202.206,202.206 0 0 1 -3.338,-36.9" id="Path_17"/>
   <path fill="#4f44ff" d="m90.84134,280.46916c3.491,8.671 29.317,27.483 29.317,27.483s5.563,-31.466 2.072,-40.137a16.938,16.938 0 1 0 -31.423,12.654l0.034,0z" id="Path_18"/>
   <path fill="#4f44ff" d="m84.23734,338.94216c7.643,5.376 39.551,7.134 39.551,7.134s-12.425,-29.436 -20.068,-34.82a16.925,16.925 0 1 0 -19.484,27.68l0.001,0.006z" id="Path_19"/>
   <path fill="#4f44ff" d="m118.45134,420.54116c9.342,0.781 37.742,-13.809 37.742,-13.809s-25.589,-19.16 -34.905,-19.916a16.926,16.926 0 1 0 -2.837,33.725z" id="Path_20"/>
   <path fill="#4f44ff" d="m158.23134,476.45816c9.053,2.344 39.534,-7.236 39.534,-7.236s-21.988,-23.185 -31.033,-25.529a16.925,16.925 0 1 0 -8.493,32.767l-0.008,-0.002z" id="Path_21"/>
   <path fill="#4f44ff" d="m157.43434,334.46716c-3.788,8.552 -30.234,26.48 -30.234,26.48s-4.5,-31.636 -0.722,-40.179a16.926,16.926 0 1 1 30.956,13.7l0,-0.001z" id="Path_22"/>
   <path fill="#4f44ff" d="m203.12334,400.44716c-6.166,7.024 -36.765,16.224 -36.765,16.224s5.172,-31.534 11.338,-38.549a16.919,16.919 0 0 1 25.427,22.328l0,-0.003z" id="Path_23"/>
   <path fill="#4f44ff" d="m238.74234,470.67416c-4.926,7.966 -33.5,22.209 -33.5,22.209s-0.238,-31.95 4.654,-39.916a16.938,16.938 0 1 1 28.875,17.716l-0.029,-0.009z" id="Path_24"/>
   <ellipse fill="#e6e6e6" ry="23.33" rx="356.31" cy="557.80515" cx="354.64333" id="Ellipse_1"/>
   <g stroke="null" id="Group_8">
    <path stroke="null" fill="#d0cde1" d="m452.50832,190.65437s4.93201,-24.92644 20.80958,-25.05327l11.59797,23.00159l-7.7344,5.13902s-16.80709,0.51432 -24.67314,-3.08734z" id="Path_26"/>
    <path stroke="null" opacity="0.502" d="m484.91514,188.59638l-7.7344,5.14533s-11.79217,0.36087 -20.28226,-1.64387a23.39159,22.53561 0 0 1 -4.39088,-1.44347a1.53321,1.4771 0 0 1 0.09019,-0.40081a0.83424,0.80372 0 0 1 0,-0.0939a58.5557,56.41296 0 0 1 3.00314,-9.15551c0.48585,-1.11623 1.04081,-2.27171 1.63721,-3.42158c2.32381,-4.31008 5.59097,-8.53398 10.05822,-10.6256a13.73486,13.23225 0 0 1 5.29276,-1.33626l0.70769,0l0.24947,0.50802l3.92757,7.7716l7.44129,14.69604z" id="Path_27"/>
    <path stroke="null" fill="#d0cde1" d="m616.69457,292.17009s16.64781,-1.54157 18.13883,-0.38749s10.93901,7.07019 16.53652,3.341s1.8656,-16.70639 1.8656,-17.22141s-0.52731,-18.8849 -0.52731,-18.8849l-10.00948,-12.97789l-12.53404,-22.7206l-25.60921,-2.43918l0.69387,36.08669l-0.13165,18.50441l11.57688,16.69938z" id="Path_28"/>
    <path stroke="null" opacity="0.503" d="m616.69457,292.17009s16.64781,-1.54157 18.13883,-0.38749s10.93901,7.07019 16.53652,3.341s1.8656,-16.70639 1.8656,-17.22141s-0.52731,-18.8849 -0.52731,-18.8849l-10.00948,-12.97789l-12.53404,-22.7206l-25.60921,-2.43918l0.69387,36.08669l-0.13165,18.50441l11.57688,16.69938z" id="Path_29"/>
    <path stroke="null" fill="#fbbebe" d="m469.9751,164.95995s-1.32519,15.67774 -11.46632,15.9314c0,0 -2.87149,-1.6705 -6.73506,-4.45093c-8.90613,-6.42203 -23.0432,-18.76508 -19.13745,-30.24555c5.60479,-16.44572 32.80976,13.87971 32.80976,13.87971l2.08088,2.2584l2.44819,2.62697z" id="Path_30"/>
    <path stroke="null" opacity="0.1" d="m469.97437,164.95925s-1.32519,15.67774 -11.46632,15.9314c0,0 -2.87149,-1.6705 -6.73506,-4.45093l-0.86697,-1.06929a13.24173,12.75717 0 0 0 5.54951,1.43646c2.54565,0.05325 5.41059,-0.85557 7.24855,-4.39697a58.10694,55.98062 0 0 0 2.77476,-6.22163a19.04581,18.34886 0 0 0 1.02626,-3.85392l2.46928,2.62487z" id="Path_31"/>
    <path stroke="null" fill="#e6e6e6" d="m465.57622,193.35422l-2.28235,-2.82667l-7.69949,-9.52268l-3.9123,-4.86505a13.17845,12.69621 0 0 0 5.54951,1.44347c2.54565,0.05325 5.41059,-0.85557 7.25582,-4.40398a57.8502,55.73326 0 0 0 2.77476,-6.22163c1.26919,-3.46853 1.24155,-5.25534 0.80006,-5.85375s2.83003,2.33197 4.4047,3.76913l0.05528,0.05325c0.45094,0.40081 0.74187,0.66848 0.74187,0.66848l0.27057,0.52133l3.86357,7.44437l0.04146,0.31392c0.35203,2.36561 1.65613,17.35454 -11.86344,19.47981z" id="Path_32"/>
    <path stroke="null" fill="#2f2e41" d="m545.47099,524.1045s-11.20085,7.07019 -16.80127,6.01421s-11.34122,1.80433 -11.34122,1.80433a33.7531,32.51796 0 0 1 -14.14362,8.86822c-9.06614,2.9535 -21.73183,1.79733 -28.93237,-0.52133c-3.41262,-1.08961 -3.68319,-2.50575 -2.04597,-4.24351c1.82414,-1.94448 6.007,-4.29046 10.84882,-7.06388c9.19779,-5.26585 19.06835,-15.67774 19.06835,-15.67774s0.13165,-2.56601 1.73395,-3.72218a20.69975,19.94228 0 0 0 2.69111,-2.67322c1.4292,-1.63056 2.77476,-3.341 2.77476,-3.341l32.94795,1.02935s0.56222,2.29203 0.99862,4.63101c0.3673,1.91785 0.6546,3.86933 0.46476,4.6247c-0.40221,1.66419 0.93607,3.20786 0.93607,3.20786l0.58986,5.24553l0.2102,1.81765z" id="Path_33"/>
    <path stroke="null" fill="#2f2e41" d="m614.43985,532.96501c-0.39567,1.53666 -0.87279,4.29677 -1.09099,5.59309c-0.07273,0.44075 -0.11128,0.70842 -0.11128,0.70842s-2.67075,5.65335 -17.4726,7.71204s-14.80257,-4.75784 -14.80257,-4.75784s0.05528,-0.73505 0.15274,-1.83797c0.25675,-3.00746 0.79061,-8.75891 1.179,-9.98375c0.53386,-1.6705 -0.39567,-8.99505 -0.39567,-8.99505l-0.15928,-7.65809l-0.11128,-5.34644l24.54586,-2.44549a46.93082,45.21347 0 0 0 0.79061,5.26585a6.93725,6.6834 0 0 0 1.07499,2.67322c1.33174,1.42315 2.13616,7.71134 2.13616,7.71134s4.78436,9.30266 4.26432,11.36065z" id="Path_34"/>
    <path stroke="null" opacity="0.1" d="m542.29766,504.57074s0.5615,2.29203 0.99862,4.63101c-3.55809,0.63064 -19.11708,3.22748 -23.00829,1.40983c-4.39742,-2.05799 -13.87305,-3.21417 -13.87305,-3.21417l0.15928,-0.52133c1.4292,-1.63056 2.77476,-3.341 2.77476,-3.341l32.94868,1.03565z" id="Path_35"/>
    <path stroke="null" opacity="0.1" d="m606.9491,511.24643c-6.24265,-1.01603 -19.85241,1.44347 -25.22082,2.49944l-0.11128,-5.34644l24.54149,-2.44549a46.94028,45.22258 0 0 0 0.79061,5.29248z" id="Path_36"/>
    <path stroke="null" fill="#2f2e41" d="m620.8287,316.45468l-0.53386,18.11692s0.69387,27.62629 -1.33174,31.99663s-2.00452,21.97224 -2.00452,21.97224s1.33901,8.35319 -0.13165,10.14421s-0.40221,8.48703 0.69387,11.95556s0.1251,12.08238 0.1251,12.08238l-0.26329,48.56918s-1.46338,12.5904 -3.33625,14.39403a4.36979,4.20988 0 0 0 -1.06117,4.10968s-1.60012,7.19071 -1.20009,8.47862s1.20009,4.23651 -1.8656,5.64704s-2.27508,5.91401 -2.27508,5.91401c-7.33219,-1.6705 -28.13449,2.83368 -28.13449,2.83368s-4.16177,-8.22636 -5.87535,-13.75288s2.5391,-8.99505 5.33422,-9.35591s-1.99797,-5.14603 -1.99797,-5.14603s0.53386,-0.66848 -0.80006,-5.26585s0.26329,-16.45273 0.69387,-19.53306s2.40018,-17.98939 2.40018,-17.98939s-1.06117,-18.8849 -0.26329,-19.65989s3.4679,-8.22636 2.13616,-10.69217s-3.4679,-18.50441 -3.4679,-19.3796s-1.73395,-21.71858 -1.73395,-21.71858s-1.59503,-14.52156 -1.20009,-17.6019s-1.06844,-14.51456 -1.06844,-14.51456c0,-9.51638 -5.72916,-19.79372 -5.72916,-19.79372l-0.14547,0.36787l-12.39512,31.40803s-1.99797,9.50306 -3.73846,14.90205a101.36985,97.66039 0 0 0 -2.60092,11.15324l-0.11783,0.66848c-0.04873,0.28729 -0.09019,0.53464 -0.11783,0.72173l-0.08292,0.52133l0,0s0.92952,6.80952 -0.53386,8.99505s-3.12751,8.73438 -3.12751,10.55833s0.1251,8.74769 0.1251,8.74769s0.54113,13.74658 -0.92952,15.29025s-0.69387,2.82667 -0.69387,2.82667s2.40673,10.40488 1.33901,13.10332s-0.26329,8.98804 -0.26329,8.98804s-2.1158,19.87431 -2.35145,20.91627s-1.73395,8.99505 -0.13892,9.6362s4.66799,4.49717 4.66799,4.49717s0.69387,16.83392 -1.7274,18.11692s-1.07499,7.83887 -1.07499,7.83887s-19.33165,3.60166 -23.73634,1.54157s-13.87305,-3.21417 -13.87305,-3.21417l1.32519,-4.22319c-0.07273,0.14715 -0.95716,1.51704 -1.58848,-3.74251c-0.69387,-5.52652 4.93856,-2.82667 4.93856,-2.82667s4.39742,1.02935 -2.67729,-5.65335s-3.60027,-13.49222 -3.20024,-13.49222s1.33174,-9.89056 1.33174,-9.89056s1.20009,-5.91401 0.26329,-10.53871s-1.7274,-19.01874 -1.7274,-19.01874s0.69387,-10.9192 -0.53386,-14.90205s0.80006,-11.17987 1.20009,-12.85737s-1.20009,-16.95724 -1.20009,-16.95724s1.33901,-7.19071 0.53386,-12.45656s0.80442,-24.67208 0.80442,-24.67208l2.40018,-22.36043s1.7274,-6.93705 1.46338,-9.76303s1.99797,-12.69691 1.99797,-12.69691s-0.26329,-3.60166 1.06844,-6.16627s1.87287,-11.04673 1.87287,-11.04673l12.80461,-28.27445l6.24265,-24.92644l84.69441,-0.77078s0.31202,2.15819 0.81824,6.08779s1.24155,9.74971 2.08088,16.92711c0.73533,6.52223 1.53975,14.19363 2.32745,22.7213c2.50055,27.21917 -2.83367,32.10454 -2.83367,32.10454z" id="Path_37"/>
    <path stroke="null" fill="#fbbebe" d="m612.96265,91.45732l-19.7484,20.30875s-25.3321,-9.77003 -22.66862,-13.11103c1.03353,-1.29632 0.86697,-5.34644 0.27057,-9.88005c-0.93607,-7.11013 -2.93404,-15.30987 -2.93404,-15.30987s44.27535,-6.93705 40.53689,0.25366c-1.38701,2.63328 -1.12372,5.7003 -0.27711,8.53398a33.29416,32.07581 0 0 0 4.82073,9.20176l0,0.0028z" id="Path_38"/>
    <path stroke="null" opacity="0.1" d="m608.41976,73.72159c-1.38701,2.63328 -2.01179,2.88694 -1.15863,5.72062c-5.79171,6.01421 -13.17918,12.53014 -22.30787,12.53014a31.58203,30.42633 0 0 1 -14.13634,-3.19455c-0.93607,-7.11013 -2.93404,-15.30987 -2.93404,-15.30987s44.27535,-6.93705 40.53689,0.25366z" id="Path_39"/>
    <path stroke="null" fill="#fbbebe" d="m616.69457,60.61756a31.7464,30.5847 0 1 1 -63.49572,0c0,-0.14715 0,-0.2943 0,-0.44075a31.74204,30.58049 0 1 1 63.48262,0.44075l0.01309,0z" id="Path_40"/>
    <path stroke="null" opacity="0.1" d="m621.29346,262.37229c-4.20323,0.03363 -18.20792,0.14715 -33.85711,0.38749l-0.18765,0l-5.17203,0.08409l-0.15928,0c-18.55486,0.28729 -36.83988,-3.20786 -44.17862,-2.53938c-15.607,1.40983 5.60042,-13.87971 5.60042,-13.87971a130.4266,125.65385 0 0 0 35.5496,3.46152l4.48761,-0.22072c14.18289,-0.77499 28.43852,-2.05799 35.87544,-4.20988c0.51568,3.96603 1.23718,9.76653 2.04161,16.9166z" id="Path_41"/>
    <path stroke="null" fill="#7c5c5c" d="m621.29346,261.60361c-4.20323,0 -18.20792,0.14715 -33.85711,0.38119l-0.18765,0l-5.17494,0.08689l-0.15928,0c-18.55486,0.28729 -36.83988,-3.20786 -44.17862,-2.54639c-15.607,1.40983 5.60042,-13.87411 5.60042,-13.87411a130.74517,125.96077 0 0 0 35.5496,3.46152l4.48761,-0.22703c14.18289,-0.77078 28.43852,-2.05799 35.87544,-4.20988c0.51858,3.97024 1.24009,9.75041 2.04452,16.92781z" id="Path_42"/>
    <path stroke="null" opacity="0.1" d="m576.41443,99.93804l-24.54149,11.05304l-18.93598,141.08354s11.20085,-4.87836 17.60133,-1.79733s26.13652,0.26067 26.13652,0.26067s14.40691,-0.77499 16.54307,0.77078s27.20206,-6.42203 27.20206,-6.42203s4.53634,-9.77003 1.06844,-11.3067s1.06844,-16.70639 1.06844,-16.70639l-2.13616,-101.77007l-4.26578,-13.10332l-11.46705,-6.6869l-11.75071,8.99505l-5.54951,0.77078l-10.97319,-5.14113z" id="Path_43"/>
    <path stroke="null" fill="#e6e6e6" d="m576.41443,98.39437l-24.54149,11.05304l-18.93598,141.09615s11.20085,-4.88467 17.60133,-1.79733s26.13652,0.25366 26.13652,0.25366s14.40691,-0.77078 16.54307,0.77078s27.20206,-6.42203 27.20206,-6.42203s4.53634,-9.76303 1.06844,-11.3067s1.06844,-16.70639 1.06844,-16.70639l-2.13616,-101.78338l-4.26578,-13.10332l-11.46705,-6.6862l-11.75071,9.00135l-5.54951,0.76167l-10.97319,-5.13132z" id="Path_44"/>
    <path stroke="null" opacity="0.1" d="m576.01222,104.94954s7.06817,8.09253 6.93653,9.76303s-0.39567,5.65335 -0.39567,5.65335l-5.34077,10.41189s-2.93404,12.97789 -2.93404,15.67774s-4.66799,26.0623 -4.66799,26.0623l-5.60042,35.97948l-7.06817,47.15795l7.20055,11.94855l8.53883,-6.93705l11.33395,-84.04065l2.40018,-16.57325s2.53183,-29.81111 2.53183,-32.89214s-1.46338,-11.17987 -1.46338,-11.17987s1.73395,-7.71204 8.93449,-9.50937s-0.53386,-0.38749 -0.53386,-0.38749l-4.16177,-3.21417l-3.60027,1.41684s-9.97385,-2.93248 -12.11001,0.66287z" id="Path_45"/>
    <path stroke="null" fill="#2f2e41" d="m575.21434,104.19417s7.06817,8.09253 6.93653,9.76303s-0.40221,5.65335 -0.40221,5.65335l-5.33422,10.41189s-2.89913,12.96318 -2.89913,15.65742s-4.66799,26.0623 -4.66799,26.0623l-5.6397,36.03274l-7.03399,47.12641l7.20709,11.95556l8.49737,-6.95667l11.34631,-84.02103l2.40018,-16.57325s2.53183,-29.81111 2.53183,-32.89845s-1.46338,-11.17987 -1.46338,-11.17987s1.73395,-7.70784 8.93449,-9.50937s-0.53386,-0.38119 -0.53386,-0.38119l-4.16177,-3.21417l-3.54427,1.40142s-10.03712,-2.94299 -12.17329,0.66988z" id="Path_46"/>
    <path stroke="null" opacity="0.1" d="m570.54635,90.68864s-1.06844,0.77078 -1.33174,5.90771s-4.0003,16.70639 -4.0003,16.70639s13.87305,-9.25571 20.80958,-8.22636l-15.47754,-14.38773z" id="Path_47"/>
    <path stroke="null" fill="#e6e6e6" d="m570.54635,89.14497s-1.06844,0.77078 -1.33174,5.91401s-4.0003,16.70639 -4.0003,16.70639s13.87305,-9.2494 20.80958,-8.21936l-15.47754,-14.40104z" id="Path_48"/>
    <path stroke="null" opacity="0.1" d="m608.42631,86.57265l-21.87729,18.50441s18.40939,10.53871 20.80958,13.11103s4.79964,-25.18991 4.79964,-25.18991l-3.73192,-6.42553z" id="Path_49"/>
    <path stroke="null" fill="#e6e6e6" d="m609.22418,85.03529l-21.83583,18.4911s18.40139,10.53171 20.80958,13.10332s4.80691,-25.18711 4.80691,-25.18711l-3.78065,-6.40731z" id="Path_50"/>
    <path stroke="null" opacity="0.1" d="m571.34423,90.68934s-2.40018,-1.15618 -4.66799,2.18552s-6.53431,4.87836 -6.53431,4.87836s-24.27747,3.72919 -25.207,6.80952l-11.33395,0.66848s-4.0003,0.50802 -4.4047,8.60755s-2.55947,8.8479 -2.55947,8.8479s-4.66799,7.9657 -4.27305,12.07538s-3.60027,6.16627 -3.60027,6.16627l16.64781,41.76246s0.53386,17.22141 -2.53837,23.51591s-8.80067,34.18145 -8.80067,34.18145s2.40673,-0.51432 2.26854,1.02234s-2.93404,18.37758 -2.93404,18.37758s-0.80006,6.68269 -2.12962,8.99505s-1.47066,14.39474 -1.47066,14.39474l-2.13616,8.73438s5.0702,10.92621 12.80461,9.35591s21.82929,-30.67299 21.82929,-30.67299l8.93449,-31.48161l6.93653,-31.09411l1.99797,-21.07042l3.20461,-46.64502l4.66799,-30.84046s5.1713,-16.58586 3.29843,-18.77419z" id="Path_51"/>
    <path stroke="null" fill="#2f2e41" d="m570.54635,89.14567s-2.40018,-1.15618 -4.66799,2.18552s-6.53431,4.88467 -6.53431,4.88467s-24.27747,3.72218 -25.207,6.80952l-11.34122,0.66848s-4.0003,0.51432 -4.39742,8.60755s-2.53837,8.86752 -2.53837,8.86752s-4.66799,7.9657 -4.26578,12.07538s-3.60027,6.16627 -3.60027,6.16627l16.64781,41.76246s0.53386,17.22141 -2.53183,23.51591s-8.80067,34.18145 -8.80067,34.18145s2.40018,-0.51432 2.26854,1.02935s-2.93404,18.37058 -2.93404,18.37058s-0.80006,6.68269 -2.13616,8.99505s-1.46338,14.39474 -1.46338,14.39474l-2.11943,8.70635s5.0702,10.92621 12.80461,9.35591s21.7391,-30.70662 21.7391,-30.70662l8.94104,-31.48161l6.93653,-31.10112l2.00452,-21.07042l3.20024,-46.64502l4.66799,-30.84046s5.19312,-16.54662 3.32752,-18.73144z" id="Path_52"/>
    <path stroke="null" opacity="0.1" d="m484.91587,188.59638l-7.7344,5.14813s-11.79217,0.36087 -20.28226,-1.64387l-4.30069,-1.84428l-0.86697,-0.36087l0.88807,0.26697c4.45997,1.2767 7.94897,1.24937 10.67499,0.36787c10.94556,-3.54841 9.71128,-20.96321 9.31561,-24.90612c-0.04146,-0.3945 -0.07273,-0.66848 -0.09019,-0.74836a0.2182,0.21021 0 0 1 0,-0.04695l0.06255,0.1002a4.90146,4.7221 0 0 0 0.50913,0.66848c0.15274,0.16677 0.31202,0.34055 0.48585,0.50101l0,0l3.86357,7.44437l0.04146,0.31392l7.43329,14.73949z" id="Path_53"/>
    <path stroke="null" fill="#2f2e41" d="m511.72517,138.356l-3.73192,1.02935l-0.53386,7.35117s-4.4047,-0.66848 -5.60479,4.37034s-3.32971,7.35117 -3.32971,7.35117s-7.33874,5.91401 -7.74095,10.9192l-4.5298,2.67322s-10.54625,-2.36561 -12.93625,-6.44655c0,0 4.80036,33.15281 -20.80958,25.05327c0,0 28.67563,12.08238 30.00736,13.75288s10.14113,6.54886 18.13883,2.43918s9.73892,-10.43151 9.73892,-10.43151s7.7344,-10.41119 8.00497,-11.95556s6.24265,-3.341 6.24265,-3.341l11.4736,-26.73288l-24.38948,-16.0323z" id="Path_54"/>
    <path stroke="null" opacity="0.1" d="m605.36062,101.99603l3.86357,-16.95724s1.73395,5.52652 3.46863,6.80952l5.73643,4.23651s5.73643,2.57302 7.7344,2.57302s12.80461,2.67322 14.13634,4.10968s6.67323,0.38749 6.67323,0.38749s4.39742,1.40983 8.26826,2.31235s5.73643,7.07019 4.93201,9.50937a7.69222,7.41073 0 0 0 1.87287,6.93705c1.59503,1.54157 2.40018,6.55587 2.40018,6.55587a7.8035,7.51794 0 0 1 4.5298,3.72218c1.33901,2.82667 0.9368,8.99505 0.9368,8.99505l-19.87278,26.98444s0.26329,10.41189 -0.53386,12.69691s2.77476,41.63283 2.77476,41.63283l4.16177,67.58792s-5.46587,4.49717 -6.66596,5.0122s-2.40673,-23.9041 -2.40673,-24.79891s-30.80451,-44.4595 -30.80451,-44.4595s-4.16177,-6.42834 -4.16177,-7.83887s-3.87084,-14.39474 -3.87084,-14.39474l-5.87099,-25.05678l2.69839,-76.55634z" id="Path_55"/>
    <path stroke="null" fill="#2f2e41" d="m671.56272,139.71258c0,0.8822 -0.04873,1.4715 -0.04873,1.4715l-19.85605,26.96411l0,0s0.27784,10.40488 -0.52731,12.69691c-0.46476,1.33626 0.55495,15.16972 1.4983,26.52337c0.69387,8.19834 1.3041,15.10946 1.3041,15.10946l1.75504,28.66825l2.37254,38.91967s-5.46587,4.49717 -6.66596,5.0122s-2.40018,-23.9041 -2.40018,-24.80522s-30.81179,-44.4532 -30.81179,-44.4532s-4.16177,-6.42834 -4.16177,-7.83887s-3.86357,-14.39474 -3.86357,-14.39474l-5.86808,-25.05958l2.66347,-76.57596l2.26854,-16.95724s3.33625,5.52652 5.0702,6.80322s5.72989,4.24351 5.72989,4.24351s5.73643,2.57302 7.74095,2.57302s12.80461,2.67322 14.13634,4.10968s6.67323,0.38749 6.67323,0.38749s4.39742,1.40983 8.26099,2.31235s5.73643,7.07019 4.93856,9.50236a7.69222,7.41073 0 0 0 1.8656,6.94336c1.60012,1.54157 2.40018,6.54886 2.40018,6.54886a7.83114,7.54457 0 0 1 4.53634,3.7355c0.93316,1.99353 1.02335,5.55735 0.98917,7.55999z" id="Path_56"/>
    <path stroke="null" opacity="0.1" d="m508.52711,482.08418c0.69387,0 28.67563,1.02935 28.14104,5.39969s-28.14104,-5.39969 -28.14104,-5.39969z" id="Path_57"/>
    <path stroke="null" opacity="0.1" d="m514.79813,489.40802s18.80506,2.9535 13.87305,5.65335s-13.87305,-5.65335 -13.87305,-5.65335z" id="Path_58"/>
    <path stroke="null" opacity="0.1" d="m584.68269,479.2575s31.214,2.57302 26.54746,5.90771s-15.73865,3.85392 -16.27323,4.00948s-10.27423,-9.91718 -10.27423,-9.91718z" id="Path_59"/>
    <path stroke="null" opacity="0.1" d="m580.95077,492.49536s17.34095,2.82667 17.86826,6.01421s-17.86826,-6.01421 -17.86826,-6.01421z" id="Path_60"/>
    <path stroke="null" opacity="0.1" d="m590.55077,415.13741s15.87029,3.59536 16.80709,6.01421l-16.80709,-6.01421z" id="Path_61"/>
    <path stroke="null" opacity="0.1" d="m529.32941,426.19045s-8.26826,2.31235 -0.26329,6.93705s0.26329,-6.93705 0.26329,-6.93705z" id="Path_62"/>
    <path stroke="null" opacity="0.1" d="m566.01,302.7025c0.93607,0 15.47535,-4.6247 20.53901,-2.56601s11.34122,2.05169 11.34122,2.05169l-31.88023,0.51432z" id="Path_63"/>
    <path stroke="null" opacity="0.1" d="m567.88287,317.37051l-0.14547,1.26969l-12.39512,31.40803s-1.99797,9.50236 -3.73846,14.90205a101.33858,97.63026 0 0 0 -2.60092,11.15324l11.01029,-65.76326l7.86969,7.03025z" id="Path_64"/>
    <path stroke="null" fill="#2f2e41" d="m587.24943,261.9848l-5.17494,0.08689l-0.15928,0l-3.0315,-12.95127c1.49102,-0.07007 2.98204,-0.14715 4.48761,-0.23404l3.87811,13.09842z" id="Path_65"/>
    <path stroke="null" fill="#fbbebe" d="m650.17056,246.30426l-3.32243,2.63328l-11.09611,8.78834s-30.01391,15.42338 -38.28217,0.77499c-7.29001,-12.90432 26.74021,-22.11939 34.9321,-24.13113c1.11645,-0.27398 1.74559,-0.40781 1.74559,-0.40781l16.02303,12.34235z" id="Path_66"/>
    <path stroke="null" opacity="0.1" d="m521.99795,119.98542s5.86808,2.56601 7.20055,6.16627s-7.20055,-6.16627 -7.20055,-6.16627z" id="Path_67"/>
    <path stroke="null" opacity="0.1" d="m503.85912,158.53091s-8.53883,10.02369 -5.0702,13.87971s5.0702,-13.87971 5.0702,-13.87971z" id="Path_68"/>
    <path stroke="null" opacity="0.1" d="m656.4423,125.63877s-8.00497,0.77078 -8.26826,7.45138l8.26826,-7.45138z" id="Path_69"/>
    <path stroke="null" opacity="0.1" d="m582.28251,231.0042c0.80006,-0.77078 19.20727,-26.98444 23.47305,-24.67208l-23.47305,24.67208z" id="Path_70"/>
    <path stroke="null" opacity="0.1" d="m616.69457,60.61686a31.63149,30.47398 0 0 1 -3.75228,14.43468l-0.23565,-0.03994c-2.01179,-0.40781 -3.05914,-2.67322 -4.59889,-4.07674a6.24265,6.01421 0 0 0 -7.20055,-0.97539a7.32492,7.05687 0 0 0 -3.53772,6.59581c-1.01244,-4.11669 -0.69387,-8.49334 -1.68595,-12.61703s-3.98139,-8.29293 -8.06679,-8.36651c-1.76159,0 -3.82211,0.63064 -5.09129,-0.66848c-0.77024,-0.77078 -0.92952,-2.00474 -1.50557,-2.90726c-2.92022,-4.55463 -11.79217,-2.25209 -15.44044,0.07988c-3.51008,2.24228 -7.85514,6.06817 -12.36457,8.07291a31.74204,30.58049 0 1 1 63.48262,0.44075l-0.00291,0.02733z" id="Path_71"/>
    <path stroke="null" fill="#2f2e41" d="m581.01987,51.24834c0.58186,0.92914 0.73533,2.14488 1.50557,2.90726c1.26919,1.26969 3.32971,0.62153 5.09129,0.66848c4.0854,0.07007 7.07544,4.24351 8.06679,8.36651s0.69387,8.49334 1.68522,12.61282a7.3111,7.04356 0 0 1 3.54427,-6.5867a6.24265,6.01421 0 0 1 7.19327,0.96909c1.53975,1.40983 2.5871,3.66893 4.59889,4.07674s3.95375,-1.45047 4.67526,-3.49515s0.69387,-4.28346 1.15136,-6.40171c0.90843,-4.00948 3.62064,-7.28741 5.12621,-11.09999a20.89322,20.12867 0 0 0 -0.13892,-14.35409c-0.99862,-2.41255 -2.49037,-4.58406 -3.4679,-6.99661c-1.53975,-3.66192 -10.07858,-8.59354 -11.9449,-12.08238c-3.14206,-5.84044 -1.11645,-2.19884 -7.19327,0c-2.89913,1.05107 -6.70087,-2.68653 -9.64146,-1.75739c-3.94721,1.21644 -8.15698,0.30061 -12.24311,-0.24735s-8.58756,-0.60121 -11.86853,2.00474c-3.77338,2.97382 -4.80691,8.56691 -8.32354,11.83503c-1.49102,1.36989 -3.34571,2.24228 -4.91819,3.51477s-2.92749,3.15321 -2.77476,5.21891c0.23565,2.67322 2.94131,5.07876 1.94197,7.54457a6.33939,6.10741 0 0 1 -1.4772,1.87791a27.78392,26.76721 0 0 0 -6.45794,10.58496c7.13727,2.14488 14.86513,-5.43332 20.44882,-9.01467c3.61555,-2.39153 12.50058,-4.67025 15.4208,-0.14575z" id="Path_72"/>
    <path stroke="null" opacity="0.1" d="m650.16983,246.30426l-3.32243,2.63328c-2.92749,-4.67796 -14.94804,-14.08012 -14.94804,-14.08012l0.52004,-0.48139c1.11645,-0.27398 1.74559,-0.40781 1.74559,-0.40781l16.00485,12.33604z" id="Path_73"/>
    <path stroke="null" fill="#e6e6e6" d="m653.37444,241.54291s-1.19282,2.86031 -2.42782,5.34644s-2.57329,4.7179 -2.64311,2.89394c-0.13165,-3.60166 -15.59973,-15.68405 -15.59973,-15.68405l2.08088,-1.96199l2.43437,-2.27241l16.1554,11.67807z" id="Path_74"/>
    <path stroke="null" opacity="0.1" d="m653.90902,222.52348l1.75504,28.66825c-4.16177,-6.20831 -15.51681,-22.11939 -22.83809,-21.60507l17.7468,-19.65358a23.87163,22.99808 0 0 0 2.03215,-2.52256c0.67932,8.20324 1.3041,15.11297 1.3041,15.11297z" id="Path_75"/>
    <path stroke="null" opacity="0.1" d="m653.37443,241.54291s-1.19282,2.86031 -2.42782,5.34644c-4.64762,-6.14104 -11.04302,-13.39832 -16.14668,-14.7549l2.43437,-2.27241l16.14013,11.68088z" id="Path_76"/>
    <path stroke="null" fill="#2f2e41" d="m666.7129,137.60764l4.80036,3.59536s8.00061,0.13384 8.80067,6.55587s8.13662,9.35591 8.13662,9.35591s5.46587,5.26585 5.46587,7.70784s4.16177,6.81653 4.16177,7.19702s4.0003,8.22636 3.4679,9.6362s4.26578,7.58451 2.77476,9.89686a58.81318,56.66101 0 0 0 -3.20461,6.42203s-6.24265,11.56736 -9.46835,13.75288s-17.86826,20.5561 -17.86826,20.5561s-15.73865,17.47507 -15.73865,22.87476c0,0 -15.34662,-24.67208 -24.40912,-24.05756l17.73662,-19.66059s3.07296,-3.20786 3.20461,-5.13902s8.53155,-10.79097 12.53404,-11.17987c0,0 0.69387,-5.26585 -1.06844,-5.39549s-3.20024,-4.24351 -3.20024,-4.24351s-11.73616,-13.36539 -11.86853,-21.84541s15.74301,-26.02936 15.74301,-26.02936z" id="Path_77"/>
    <path stroke="null" opacity="0.1" d="m673.7818,149.79653s-11.20958,7.9657 -8.80067,10.53171s8.80067,-10.53171 8.80067,-10.53171z" id="Path_78"/>
    <path stroke="null" opacity="0.1" d="m545.47099,524.1045s-11.20085,7.07019 -16.80127,6.01421s-11.34122,1.80433 -11.34122,1.80433a33.7531,32.51796 0 0 1 -14.14362,8.86822c-9.06614,2.9535 -21.73183,1.79733 -28.93237,-0.52133c-3.41262,-1.08961 -3.68319,-2.50575 -2.04597,-4.24351c7.83114,1.50373 25.3321,4.49087 30.04882,2.31866c6.1321,-2.82667 14.93422,-8.99505 14.93422,-8.99505s11.48014,-1.54157 13.07517,-1.54157c1.13754,0 9.99567,-3.52178 14.99677,-5.54684l0.20947,1.84287z" id="Path_80"/>
    <path stroke="null" opacity="0.1" d="m527.53364,148.25287s0,29.29679 -2.60092,32.19003s2.60092,-32.19003 2.60092,-32.19003z" id="Path_82"/>
    <path stroke="null" opacity="0.1" d="m647.76965,157.69567l3.86357,10.46864s1.53975,-10.27455 -3.86357,-10.46864z" id="Path_83"/>
    <g stroke="null" opacity="0.1" id="Group_1">
     <path stroke="null" d="m553.46214,45.38758c0.97826,-2.41255 -1.58121,-4.77115 -1.91433,-7.35117a5.01856,4.83492 0 0 0 -0.42985,2.32566c0.1731,1.94448 1.66485,3.76913 2.08088,5.56646a3.15878,3.04319 0 0 0 0.26329,-0.54165l0,0.0007z" id="Path_84"/>
     <path stroke="null" d="m597.73166,73.06012c-0.95716,-4.05642 -0.69387,-8.34689 -1.65103,-12.3963s-3.97485,-8.29994 -8.06025,-8.36651c-1.76159,0 -3.82211,0.62153 -5.09857,-0.66848c-0.76297,-0.76167 -0.92225,-2.00474 -1.4983,-2.90726c-2.92022,-4.55463 -11.79217,-2.24228 -15.44771,0.08689c-5.45932,3.49515 -12.95007,10.79938 -19.9426,9.14149c-0.33966,0.782 -0.6546,1.5703 -0.90843,2.38242c7.13727,2.14488 14.86513,-5.43332 20.44882,-9.01467c3.64173,-2.33197 12.52749,-4.67796 15.44771,-0.08689c0.58186,0.92914 0.73533,2.14488 1.50557,2.90726c1.26919,1.26969 3.32971,0.62153 5.09129,0.66848c4.0854,0.07007 7.07544,4.24351 8.06679,8.36651s0.69387,8.49334 1.68522,12.61282a7.20055,6.93705 0 0 1 0.36366,-2.72017l-0.00218,-0.00561z" id="Path_85"/>
     <path stroke="null" d="m617.78335,68.23501c-0.69387,2.04468 -2.62929,3.91628 -4.68181,3.49515s-3.05914,-2.67322 -4.59162,-4.07674a6.24265,6.01421 0 0 0 -7.20055,-0.96909a7.26964,7.00362 0 0 0 -3.53772,6.22793a6.93653,6.68269 0 0 1 3.14206,-3.72218a6.24265,6.01421 0 0 1 7.19327,0.96909c1.53975,1.40983 2.5871,3.66893 4.59889,4.07674s3.95375,-1.45047 4.67526,-3.49515a18.14392,17.47997 0 0 0 0.73533,-3.68855a10.69172,10.30047 0 0 1 -0.33312,1.1828z" id="Path_86"/>
     <path stroke="null" d="m624.05367,50.73122c-1.4983,3.80907 -4.2185,7.09682 -5.11893,11.10629c-0.18038,0.80862 -0.28439,1.63756 -0.38839,2.46581c0.91571,-4.00948 3.61409,-7.27059 5.11239,-11.06635a20.59865,19.84488 0 0 0 1.23646,-5.34644a20.28154,19.53937 0 0 1 -0.83934,2.83999l-0.00218,0.0007z" id="Path_87"/>
    </g>
    <rect stroke="null" x="-80.01835" y="-233.3917" fill="#3a3768" transform="matrix(0.6495037074471923,-0.3153205911993025,0.3272975009532324,0.6257361954243936,570.5264543377011,267.4983743289415) " rx="0.38" height="6.886" width="0.839" id="Rectangle_1"/>
    <rect stroke="null" x="-80.01835" y="-233.3917" fill="#3a3768" transform="matrix(0.6495037074471923,-0.3153205911993025,0.3272975009532324,0.6257361954243936,548.4455102678363,268.10168772676957) " rx="2.24" height="56.802" width="27.943" id="Rectangle_5"/>
    <path stroke="null" fill="#4f44ff" d="m434.73025,141.31651a0.69387,0.66848 0 0 0 -0.3193,0.94246l0.07273,0.12683a0.69387,0.66848 0 0 1 -0.32584,0.94246l-7.69222,3.7355a0.69387,0.66848 0 0 1 -0.97826,-0.30761l-0.07273,-0.13384a0.69387,0.66848 0 0 0 -0.97826,-0.30761l-1.4983,0.72173a1.38701,1.33626 0 0 0 -0.6175,1.80433l16.36488,31.29452a1.38701,1.33626 0 0 0 1.87287,0.5949l13.42211,-6.51663a1.38701,1.33626 0 0 0 0.6175,-1.79733l-16.34378,-31.29942a1.38701,1.33626 0 0 0 -1.8656,-0.5879l-1.65831,0.7876z" id="Path_88"/>
   </g>
   <rect x="185.64537" y="512.19519" opacity="0.1" height="5.775" width="36.468" id="Rectangle_10"/>
   <path fill="#d0cde1" d="m174.10834,505.52516l101.183,0a41.887,41.887 0 0 1 41.887,41.887l0,6.443l-184.957,0l0,-6.443a41.887,41.887 0 0 1 41.887,-41.887z" id="Path_97"/>
   <rect x="183.54501" y="247.84199" fill="#fff" rx="0.79" height="7.369" width="20.645" id="Rectangle_32"/>
   <rect x="206.90701" y="247.84199" fill="#fff" rx="0.79" height="7.369" width="20.645" id="Rectangle_33"/>
   <rect x="230.26901" y="247.84199" fill="#fff" rx="0.79" height="7.369" width="20.645" id="Rectangle_34"/>
   <rect x="183.54501" y="262.271" fill="#fff" rx="0.79" height="7.369" width="20.645" id="Rectangle_36"/>
   <rect x="206.90701" y="262.271" fill="#fff" rx="0.79" height="7.369" width="20.645" id="Rectangle_37"/>
   <rect x="230.26901" y="262.271" fill="#fff" rx="0.79" height="7.369" width="20.645" id="Rectangle_38"/>
   <rect x="266.87871" y="368.00607" fill="#fff" rx="0.79" height="7.369" width="20.645" id="Rectangle_39"/>
   <rect x="206.90701" y="276.339" fill="#fff" rx="0.79" height="7.369" width="20.645" id="Rectangle_40"/>
   <rect x="230.26901" y="276.339" fill="#fff" rx="0.79" height="7.369" width="20.645" id="Rectangle_41"/>
   <rect x="183.54501" y="291.85899" fill="#fff" rx="0.79" height="7.369" width="20.645" id="Rectangle_42"/>
   <rect x="206.90701" y="291.85899" fill="#fff" rx="0.79" height="7.369" width="20.645" id="Rectangle_43"/>
   <rect x="230.26901" y="291.85899" fill="#fff" rx="0.79" height="7.369" width="20.645" id="Rectangle_44"/>
   <rect x="228.78702" y="229.79099" fill="#fff" height="1.184" width="9.89" id="Rectangle_47"/>
   <rect x="242.63901" y="229.79099" fill="#fff" height="1.184" width="9.89" id="Rectangle_48"/>
   <rect x="256.49203" y="229.79099" fill="#fff" height="1.184" width="9.89" id="Rectangle_49"/>
  </g>
 </g>
</svg>