<svg width="644.24409" height="478.03289" xmlns="http://www.w3.org/2000/svg">
 <title>quite_town</title>

 <g>
  <title>background</title>
  <rect fill="none" id="canvas_background" height="480.03289" width="646.24409" y="-1" x="-1"/>
 </g>
 <g>
  <title>Layer 1</title>
  <rect id="svg_6" fill="#3f3d56" transform="rotate(-180 918.9879760742189,1171.8402099609375) " height="53.24868" width="15.38295" y="1145.21579" x="911.29652"/>
  <rect id="svg_20" fill="#4f44ff" height="35" width="14" y="41" x="281"/>
  <rect id="svg_21" fill="#4f44ff" height="405" width="119" y="73" x="175"/>
  <rect id="svg_22" fill="#3f3d56" height="405" width="48" y="73" x="294"/>
  <rect id="svg_23" fill="#fff" height="18" width="18" y="108" x="196.5"/>
  <rect id="svg_24" fill="#fff" height="18" width="18" y="108" x="225.5"/>
  <rect id="svg_25" fill="#fff" height="18" width="18" y="108" x="254.5"/>
  <rect id="svg_26" fill="#fff" height="18" width="18" y="149" x="197"/>
  <rect id="svg_27" fill="#fff" height="18" width="18" y="149" x="226"/>
  <rect id="svg_28" fill="#fff" height="18" width="18" y="149" x="255"/>
  <rect id="svg_29" fill="#fff" height="18" width="18" y="190" x="197.5"/>
  <rect id="svg_30" fill="#fff" height="18" width="18" y="190" x="226.5"/>
  <rect id="svg_31" fill="#fff" height="18" width="18" y="190" x="255.5"/>
  <rect id="svg_32" fill="#fff" height="18" width="18" y="231" x="198"/>
  <rect id="svg_33" fill="#fff" height="18" width="18" y="231" x="227"/>
  <rect id="svg_34" fill="#fff" height="18" width="18" y="231" x="256"/>
  <rect id="svg_35" fill="#fff" height="18" width="18" y="272" x="198.5"/>
  <rect id="svg_36" fill="#fff" height="18" width="18" y="272" x="227.5"/>
  <rect id="svg_37" fill="#fff" height="18" width="18" y="272" x="256.5"/>
  <rect id="svg_38" fill="#fff" height="18" width="18" y="313" x="199"/>
  <rect id="svg_39" fill="#fff" height="18" width="18" y="313" x="228"/>
  <rect id="svg_40" fill="#fff" height="18" width="18" y="313" x="257"/>
  <rect id="svg_41" fill="#fff" height="18" width="18" y="354" x="199.5"/>
  <rect id="svg_42" fill="#fff" height="18" width="18" y="354" x="228.5"/>
  <rect id="svg_43" fill="#fff" height="18" width="18" y="354" x="257.5"/>
  <rect id="svg_44" fill="#fff" height="18" width="18" y="395" x="200"/>
  <rect id="svg_45" fill="#fff" height="18" width="18" y="395" x="229"/>
  <rect id="svg_46" fill="#fff" height="34" width="18" y="443" x="229"/>
  <rect id="svg_47" fill="#fff" height="18" width="18" y="395" x="258"/>
  <rect id="svg_48" fill="#3f3d56" height="34" width="8" y="41" x="294"/>
  <rect id="svg_49" fill="#4f44ff" height="20.74371" width="14" y="219" x="431"/>
  <rect id="svg_50" fill="#4f44ff" height="240.03432" width="119" y="237.96568" x="325"/>
  <rect id="svg_51" fill="#3f3d56" height="240.03432" width="48" y="237.96568" x="444"/>
  <rect id="svg_52" fill="#fff" height="18" width="18" y="272" x="348.5"/>
  <rect id="svg_53" fill="#fff" height="18" width="18" y="272" x="377.5"/>
  <rect id="svg_54" fill="#fff" height="18" width="18" y="272" x="406.5"/>
  <rect id="svg_55" fill="#fff" height="18" width="18" y="313" x="349"/>
  <rect id="svg_56" fill="#fff" height="18" width="18" y="313" x="378"/>
  <rect id="svg_57" fill="#fff" height="18" width="18" y="313" x="407"/>
  <rect id="svg_58" fill="#fff" height="18" width="18" y="354" x="349.5"/>
  <rect id="svg_59" fill="#fff" height="18" width="18" y="354" x="378.5"/>
  <rect id="svg_60" fill="#fff" height="18" width="18" y="354" x="407.5"/>
  <rect id="svg_61" fill="#fff" height="18" width="18" y="395" x="350"/>
  <rect id="svg_62" fill="#fff" height="18" width="18" y="395" x="379"/>
  <rect id="svg_63" fill="#fff" height="34" width="18" y="443" x="379"/>
  <rect id="svg_64" fill="#fff" height="18" width="18" y="395" x="408"/>
  <rect id="svg_65" fill="#3f3d56" height="20.15103" width="8" y="219" x="444"/>
  <rect id="svg_66" fill="#3f3d56" height="2.24072" width="888" y="475.79217" x="0.24409"/>
  <path id="svg_79" fill="#3f3d56" d="m402.41344,38.33578l9.20569,-7.36279c-7.15149,-0.789 -10.08991,3.11126 -11.29248,6.19836c-5.587,-2.32 -11.66919,0.72046 -11.66919,0.72046l18.41888,6.68671a13.93789,13.93789 0 0 0 -4.6629,-6.24274z"/>
  <path id="svg_80" fill="#3f3d56" d="m33.41344,45.33578l9.20569,-7.36279c-7.15149,-0.789 -10.08991,3.11126 -11.29248,6.19836c-5.587,-2.32 -11.66919,0.72046 -11.66919,0.72046l18.41888,6.68671a13.93789,13.93789 0 0 0 -4.6629,-6.24274z"/>
  <path id="svg_82" fill="#3f3d56" d="m109.41344,25.33578l9.20569,-7.36279c-7.15149,-0.789 -10.08991,3.11126 -11.29248,6.19836c-5.587,-2.32 -11.66919,0.72046 -11.66919,0.72046l18.41888,6.68671a13.93789,13.93789 0 0 0 -4.6629,-6.24274z"/>
  <path id="svg_83" fill="#3f3d56" d="m126.41344,105.33578l9.20569,-7.36279c-7.15149,-0.789 -10.08991,3.11126 -11.29248,6.19836c-5.587,-2.32 -11.66919,0.72046 -11.66919,0.72046l18.41888,6.68671a13.93789,13.93789 0 0 0 -4.6629,-6.24274z"/>
  <path id="svg_84" fill="#3f3d56" d="m391.41344,177.33578l9.20569,-7.36279c-7.15149,-0.789 -10.08991,3.11126 -11.29248,6.19836c-5.587,-2.32 -11.66919,0.72046 -11.66919,0.72046l18.41888,6.68671a13.93789,13.93789 0 0 0 -4.6629,-6.24274z"/>
  <path id="svg_87" fill="#3f3d56" d="m212.00006,461a13.91769,13.91769 0 0 0 -6.96954,1.86975a14.98176,14.98176 0 0 0 -25.03046,11.13025l45.94953,0a13.99046,13.99046 0 0 0 -13.94953,-13z"/>
  <path id="svg_88" fill="#3f3d56" d="m364.00006,464a13.91769,13.91769 0 0 0 -6.96954,1.86975a14.98176,14.98176 0 0 0 -25.03046,11.13025l45.94953,0a13.99046,13.99046 0 0 0 -13.94953,-13z"/>
 </g>
</svg>