<svg id="Layer_1" data-name="Layer 1" xmlns="http://www.w3.org/2000/svg" viewBox="0 0 512 512"><title>sales and marketing</title><path d="M238.634,113.381a6,6,0,0,0-8.083-1L55.757,237.907a6,6,0,1,0,7,9.747L233.046,125.362l56.421,66.782a6,6,0,0,0,8.248.879L438.172,84.707l19.145,22.015a6,6,0,0,0,10.513-3.52l3.549-50.9a6,6,0,0,0-5.568-6.4l-50.9-3.548a6,6,0,0,0-4.945,9.923l20.318,23.363L294.931,180.017Z"/><path d="M321.688,262.1A11.52,11.52,0,0,0,310.18,250.59H199.673A11.521,11.521,0,0,0,188.165,262.1v1.364a11.522,11.522,0,0,0,11.508,11.509H310.18a11.521,11.521,0,0,0,11.508-11.509Z"/><path d="M309.5,396.365H223.947a67.617,67.617,0,0,1-31.516,21.473,12.161,12.161,0,0,0,7.924,2.908H309.5a12.191,12.191,0,0,0,0-24.381Z"/><path d="M309.5,359.9h-70.56a66.823,66.823,0,0,1-7.084,24.381H309.5a12.191,12.191,0,0,0,0-24.381Z"/><path d="M309.5,323.436H232.045a66.848,66.848,0,0,1,6.921,24.38H309.5a12.19,12.19,0,0,0,0-24.38Z"/><path d="M199.674,433.284H310.181a11.508,11.508,0,0,1,11.508,11.508v1.365a11.508,11.508,0,0,1-11.508,11.508H199.673a11.508,11.508,0,0,1-11.508-11.508v-1.364A11.509,11.509,0,0,1,199.674,433.284Z"/><path d="M309.5,286.971H200.355a12.179,12.179,0,0,0-7.584,2.651,67.619,67.619,0,0,1,31.468,21.73H309.5a12.191,12.191,0,0,0,0-24.381Z"/><path d="M22,445.247a11.521,11.521,0,0,0,11.508,11.508H144.015a11.52,11.52,0,0,0,11.508-11.508v-1.364a11.52,11.52,0,0,0-9.428-11.311,24.48,24.48,0,0,1-2.762.174H34.19a24.248,24.248,0,0,1-2.8-.168A11.523,11.523,0,0,0,22,443.883Z"/><path d="M31.586,420.459c.635-.052,1.275-.085,1.922-.085H144.015c.65,0,1.291.034,1.928.085a12.129,12.129,0,0,0,5.289-2.63,67.613,67.613,0,0,1-31.491-21.464H34.19a12.187,12.187,0,0,0-2.6,24.094Z"/><path d="M116.451,353.673a55.393,55.393,0,1,0,55.393-55.394A55.455,55.455,0,0,0,116.451,353.673Zm61.393-44.65v4.322A23.4,23.4,0,0,1,195.2,335.919a6,6,0,0,1-12,0,11.359,11.359,0,1,0-11.359,11.358,23.358,23.358,0,0,1,6,45.932v5.112a6,6,0,0,1-12,0v-5.112a23.4,23.4,0,0,1-17.358-22.573,6,6,0,0,1,12,0,11.368,11.368,0,0,0,11.233,11.352c.042,0,.083-.007.125-.007s.083.006.125.007a11.356,11.356,0,0,0-.125-22.711,23.358,23.358,0,0,1-6-45.932v-4.322a6,6,0,0,1,12,0Z"/><path d="M22,372.091a12.2,12.2,0,0,0,12.19,12.19h77.644A66.842,66.842,0,0,1,104.75,359.9H34.19A12.2,12.2,0,0,0,22,372.091Z"/><path d="M490,226.61a11.515,11.515,0,0,0-11.283-11.5c-.076,0-.15,0-.225,0H367.985c-.076,0-.15,0-.225,0a11.515,11.515,0,0,0-11.283,11.5v1.365a11.515,11.515,0,0,0,11.277,11.5c.077,0,.153-.006.231-.006H478.492c.077,0,.154,0,.231.006A11.516,11.516,0,0,0,490,227.975Z"/><path d="M490,299.338a11.516,11.516,0,0,0-11.277-11.5c-.077,0-.154.006-.231.006H367.985c-.078,0-.154,0-.231-.006a11.515,11.515,0,0,0-11.277,11.5V300.7a11.515,11.515,0,0,0,11.277,11.5c.077,0,.153-.006.231-.006H478.492c.077,0,.154.006.231.006A11.515,11.515,0,0,0,490,300.7Z"/><path d="M490,446.156v-1.364a11.516,11.516,0,0,0-11.29-11.5c-.073,0-.145.006-.218.006H367.985c-.073,0-.145,0-.218-.006a11.515,11.515,0,0,0-11.29,11.5v1.364a11.521,11.521,0,0,0,11.508,11.509H478.492A11.522,11.522,0,0,0,490,446.156Z"/><path d="M478.492,178.738H367.985a11.521,11.521,0,0,0-11.508,11.509v1.364a11.516,11.516,0,0,0,11.283,11.5c.075,0,.149-.006.225-.006H478.492c.075,0,.149,0,.225.006A11.516,11.516,0,0,0,490,191.611v-1.364A11.522,11.522,0,0,0,478.492,178.738Z"/><path d="M490,262.974a11.516,11.516,0,0,0-11.277-11.5c-.077,0-.154.006-.231.006H367.985c-.078,0-.154,0-.231-.006a11.515,11.515,0,0,0-11.277,11.5v1.364a11.516,11.516,0,0,0,11.277,11.5c.077,0,.153-.006.231-.006H478.492c.077,0,.154,0,.231.006A11.517,11.517,0,0,0,490,264.338Z"/><path d="M490,408.429a11.516,11.516,0,0,0-11.277-11.5c-.077,0-.154.006-.231.006H367.985c-.078,0-.154-.006-.231-.006a11.515,11.515,0,0,0-11.277,11.5v1.364a11.515,11.515,0,0,0,11.29,11.5c.073,0,.145-.006.218-.006H478.492c.073,0,.145,0,.218.006a11.516,11.516,0,0,0,11.29-11.5Z"/><path d="M490,372.064a11.515,11.515,0,0,0-11.29-11.5c-.073,0-.145,0-.218,0H367.985c-.073,0-.145,0-.218,0a11.514,11.514,0,0,0-11.29,11.5v1.365a11.516,11.516,0,0,0,11.277,11.5c.077,0,.153-.006.231-.006H478.492c.077,0,.154,0,.231.006A11.517,11.517,0,0,0,490,373.429Z"/><path d="M490,335.7a11.517,11.517,0,0,0-11.277-11.5c-.077,0-.154.006-.231.006H367.985c-.078,0-.154,0-.231-.006a11.516,11.516,0,0,0-11.277,11.5v1.364a11.515,11.515,0,0,0,11.29,11.5c.073,0,.145,0,.218,0H478.492c.073,0,.145,0,.218,0a11.516,11.516,0,0,0,11.29-11.5Z"/></svg>