<svg id="Capa_1" enable-background="new 0 0 512 512" height="512" viewBox="0 0 512 512" width="512" xmlns="http://www.w3.org/2000/svg"><g><path d="m129.514 227.155-12.47-5.53c-19.23-8.53-31.65-29.85-31.65-54.309 0-12.33-5.99-23.71-14.24-27.06-.06-.02-.12-.04-.17-.06l-59.749-25.09c-44.312 118.927 48.332 244.755 174.648 238.267l-45.249-113.459c-2.49-6.079-6.54-10.729-11.12-12.759z"/><path d="m203.803 118.267c-5.09 5.48-7.44 12.87-6.45 20.28s5.2 13.93 11.55 17.88l32.22 20.02c10.53 6.55 24.44 4.29 32.35-5.25l61.309-74.589c-26.76-52.481-78.969-89.92-140.248-95.95.337 1 20.678 61.414 21.22 63.039 6.249 19.01 1.669 39.92-11.951 54.57z"/><path d="m337.642 250.805c17.07-36.78 21.72-79.679 9.68-122.219l-50.719 61.709c-10.76 12.98-26.52 19.85-42.449 19.85-9.94 0-19.96-2.68-28.87-8.22l-32.22-20.03c-13.99-8.69-23.26-23.05-25.45-39.38-2.18-16.32 3-32.61 14.22-44.679 6.17-6.64 8.25-16.11 5.44-24.72l-24.5-72.739c-59.209 4.751-110.289 38.8-138.689 87.59l58.439 24.53c19.66 8.03 32.87 30.05 32.87 54.819 0 12.22 5.68 23.28 13.82 26.89 13.52 6 29.62 10.89 39.22 34.42.01.04.03.07.04.11l48.029 120.429c12.15-2.78 23.73-6.76 34.639-11.81 15.261-39.661 46.85-71.27 86.5-86.55z"/><path d="m391.591 270.795c-66.399 0-120.419 54.019-120.419 120.419 0 66.389 54.019 120.409 120.419 120.409 66.389 0 120.409-54.019 120.409-120.409 0-66.4-54.019-120.419-120.409-120.419zm54.7 91.349-44.59 40.21c-5.818 5.228-14.596 5.12-20.28-.17l-25.77-24.04c-6.05-5.65-6.38-15.14-.73-21.2s15.14-6.39 21.2-.74l15.71 14.65 34.37-30.99c6.15-5.55 15.64-5.05 21.18 1.1 5.55 6.15 5.06 15.64-1.09 21.18z"/></g></svg>